<svg xmlns="http://www.w3.org/2000/svg" xmlns:xlink="http://www.w3.org/1999/xlink"
    viewBox="40 50 392 223" height="519" width="1026" preserveAspectRatio="xMidYMid meet"
    style="width: 100%; height: 100%; transform: translate3d(0px, 0px, 0px); content-visibility: visible;">
    <defs>
        <clipPath id="__svg_element_2">
            <rect width="442" height="303" x="0" y="0" />
        </clipPath>
    </defs>
    <g clip-path="url(#__svg_element_2)">
        <g
            transform="matrix(1.018479347229004,0,0,1.018479347229004,83.76048278808594,73.27011108398438)"
            opacity="1" style="display: block;">
            <g opacity="1" transform="matrix(1,0,0,1,132.22900390625,86.73999786376953)">
                <path fill="rgb(23,120,211)" fill-opacity="1"
                    d=" M124.50499725341797,86.48999786376953 C124.50499725341797,86.48999786376953 -124.50599670410156,86.48999786376953 -124.50599670410156,86.48999786376953 C-128.63400268554688,86.48999786376953 -131.97900390625,83.14399719238281 -131.97900390625,79.01599884033203 C-131.97900390625,79.01599884033203 -131.97900390625,-79.01699829101562 -131.97900390625,-79.01699829101562 C-131.97900390625,-83.1449966430664 -128.63400268554688,-86.48999786376953 -124.50599670410156,-86.48999786376953 C-124.50599670410156,-86.48999786376953 124.50499725341797,-86.48999786376953 124.50499725341797,-86.48999786376953 C128.63299560546875,-86.48999786376953 131.97900390625,-83.1449966430664 131.97900390625,-79.01699829101562 C131.97900390625,-79.01699829101562 131.97900390625,79.01599884033203 131.97900390625,79.01599884033203 C131.97900390625,83.14399719238281 128.63299560546875,86.48999786376953 124.50499725341797,86.48999786376953z" />
            </g>
            <g opacity="1" transform="matrix(1,0,0,1,132.22900390625,6.7779998779296875)">
                <path fill="rgb(8,87,160)" fill-opacity="1"
                    d=" M124.50499725341797,-6.5279998779296875 C124.50499725341797,-6.5279998779296875 -124.50599670410156,-6.5279998779296875 -124.50599670410156,-6.5279998779296875 C-128.63400268554688,-6.5279998779296875 -131.97900390625,-3.180999994277954 -131.97900390625,0.9470000267028809 C-131.97900390625,0.9470000267028809 -131.97900390625,6.5279998779296875 -131.97900390625,6.5279998779296875 C-131.97900390625,6.5279998779296875 131.97900390625,6.5279998779296875 131.97900390625,6.5279998779296875 C131.97900390625,6.5279998779296875 131.97900390625,0.9470000267028809 131.97900390625,0.9470000267028809 C131.97900390625,-3.180999994277954 128.63299560546875,-6.5279998779296875 124.50499725341797,-6.5279998779296875z" />
            </g>
            <g opacity="1" transform="matrix(1,0,0,1,9.937999725341797,7.185999870300293)">
                <path fill="rgb(23,120,211)" fill-opacity="1"
                    d=" M0.9700000286102295,-0.968999981880188 C1.5049999952316284,-0.4339999854564667 1.5049999952316284,0.43299999833106995 0.9700000286102295,0.9679999947547913 C0.4350000023841858,1.503999948501587 -0.4339999854564667,1.503999948501587 -0.968999981880188,0.9679999947547913 C-1.5049999952316284,0.43299999833106995 -1.5049999952316284,-0.4339999854564667 -0.968999981880188,-0.968999981880188 C-0.4339999854564667,-1.503999948501587 0.4350000023841858,-1.503999948501587 0.9700000286102295,-0.968999981880188z" />
            </g>
            <g opacity="1" transform="matrix(1,0,0,1,15.967000007629395,7.185999870300293)">
                <path fill="rgb(8,87,160)" fill-opacity="1"
                    d=" M0.968999981880188,-0.968999981880188 C1.503999948501587,-0.4339999854564667 1.503999948501587,0.43299999833106995 0.968999981880188,0.9679999947547913 C0.4339999854564667,1.503999948501587 -0.43299999833106995,1.503999948501587 -0.9679999947547913,0.9679999947547913 C-1.503999948501587,0.43299999833106995 -1.503999948501587,-0.4339999854564667 -0.9679999947547913,-0.968999981880188 C-0.43299999833106995,-1.503999948501587 0.4339999854564667,-1.503999948501587 0.968999981880188,-0.968999981880188z" />
            </g>
            <g opacity="1" transform="matrix(1,0,0,1,21.56599998474121,7.185999870300293)">
                <path fill="rgb(255,255,255)" fill-opacity="1"
                    d=" M0.968999981880188,-0.968999981880188 C1.503999948501587,-0.4339999854564667 1.503999948501587,0.43299999833106995 0.968999981880188,0.9679999947547913 C0.4339999854564667,1.503999948501587 -0.43299999833106995,1.503999948501587 -0.9679999947547913,0.9679999947547913 C-1.503999948501587,0.43299999833106995 -1.503999948501587,-0.4339999854564667 -0.9679999947547913,-0.968999981880188 C-0.43299999833106995,-1.503999948501587 0.4339999854564667,-1.503999948501587 0.968999981880188,-0.968999981880188z" />
            </g>
        </g>
        <g transform="matrix(1,0,0,1,103.18627166748047,182.00994873046875)" opacity="1"
            style="display: block;">
            <g opacity="1" transform="matrix(1,0,0,1,56.95800018310547,26.156999588012695)">
                <path fill="rgb(237,237,237)" fill-opacity="0.4"
                    d=" M56.70800018310547,25.906999588012695 C56.70800018310547,25.906999588012695 -56.70800018310547,25.906999588012695 -56.70800018310547,25.906999588012695 C-56.70800018310547,25.906999588012695 -56.70800018310547,-25.906999588012695 -56.70800018310547,-25.906999588012695 C-56.70800018310547,-25.906999588012695 56.70800018310547,-25.906999588012695 56.70800018310547,-25.906999588012695 C56.70800018310547,-25.906999588012695 56.70800018310547,25.906999588012695 56.70800018310547,25.906999588012695z" />
            </g>
        </g>
        <g
            transform="matrix(-0.7748463749885559,0.6321496367454529,-0.6321496367454529,-0.7748463749885559,159.43051147460938,211.5189971923828)"
            opacity="1" style="display: block;">
            <g opacity="1" transform="matrix(1,0,0,1,23.573999404907227,21.735000610351562)">
                <path fill="rgb(237,237,237)" fill-opacity="1"
                    d=" M-10.809000015258789,-16.56399917602539 C-10.845000267028809,-16.54400062561035 -10.878999710083008,-16.52199935913086 -10.914999961853027,-16.50200080871582 C-10.914999961853027,-16.50200080871582 -10.21500015258789,-15.204000473022461 -10.21500015258789,-15.204000473022461 C-10.178999900817871,-15.222999572753906 -10.145000457763672,-15.244999885559082 -10.109000205993652,-15.265000343322754 C-1.6920000314712524,-19.799999237060547 8.845000267028809,-16.642000198364258 13.380000114440918,-8.225000381469727 C17.91699981689453,0.19099999964237213 14.758000373840332,10.729000091552734 6.341000080108643,15.263999938964844 C-2.0759999752044678,19.799999237060547 -12.61299991607666,16.642000198364258 -17.148000717163086,8.225000381469727 C-17.604999542236328,7.375999927520752 -17.979999542236328,6.506999969482422 -18.284000396728516,5.623000144958496 C-18.284000396728516,5.623000144958496 -19.60099983215332,6.334000110626221 -19.60099983215332,6.334000110626221 C-19.28700065612793,7.2129998207092285 -18.90399932861328,8.079000473022461 -18.447999954223633,8.925000190734863 C-13.526000022888184,18.058000564575195 -2.0910000801086426,21.485000610351562 7.041999816894531,16.56399917602539 C16.174999237060547,11.642000198364258 19.60099983215332,0.2070000022649765 14.680000305175781,-8.925000190734863 C9.758000373840332,-18.05900001525879 -1.6749999523162842,-21.485000610351562 -10.809000015258789,-16.56399917602539z" />
            </g>
            <g opacity="1" transform="matrix(1,0,0,1,21.690000534057617,23.434999465942383)">
                <path fill="rgb(8,87,160)" fill-opacity="1"
                    d=" M17.034000396728516,-9.694000244140625 C17.014999389648438,-9.730999946594238 16.9950008392334,-9.765999794006348 16.976999282836914,-9.803000450134277 C16.976999282836914,-9.803000450134277 15.640999794006348,-9.175999641418457 15.640999794006348,-9.175999641418457 C15.659000396728516,-9.138999938964844 15.678999900817871,-9.102999687194824 15.696999549865723,-9.065999984741211 C19.757999420166016,-0.4099999964237213 16.02199935913086,9.9350004196167 7.367000102996826,13.996999740600586 C-1.2890000343322754,18.058000564575195 -11.63599967956543,14.321000099182129 -15.696999549865723,5.664999961853027 C-19.759000778198242,-2.990000009536743 -16.023000717163086,-13.336000442504883 -7.366000175476074,-17.398000717163086 C-6.49399995803833,-17.805999755859375 -5.605000019073486,-18.132999420166016 -4.705999851226807,-18.386999130249023 C-4.705999851226807,-18.386999130249023 -5.3420000076293945,-19.742000579833984 -5.3420000076293945,-19.742000579833984 C-6.23799991607666,-19.476999282836914 -7.123000144958496,-19.141000747680664 -7.993000030517578,-18.73200035095215 C-17.38599967956543,-14.324999809265137 -21.44099998474121,-3.0989999771118164 -17.033000946044922,6.291999816894531 C-12.62600040435791,15.6850004196167 -1.399999976158142,19.742000579833984 7.993000030517578,15.333000183105469 C17.385000228881836,10.925999641418457 21.44099998474121,-0.3009999990463257 17.034000396728516,-9.694000244140625z" />
            </g>
        </g>
        <g
            transform="matrix(-0.7748463749885559,0.6321496367454529,-0.6321496367454529,-0.7748463749885559,218.73651123046875,211.1502227783203)"
            opacity="1" style="display: block;">
            <g opacity="1" transform="matrix(1,0,0,1,20.058000564575195,21.15399932861328)">
                <path fill="rgb(237,237,237)" fill-opacity="1"
                    d=" M19.47800064086914,4.01800012588501 C19.48699951171875,3.9769999980926514 19.493000030517578,3.937000036239624 19.500999450683594,3.8970000743865967 C19.500999450683594,3.8970000743865967 18.05900001525879,3.5810000896453857 18.05900001525879,3.5810000896453857 C18.049999237060547,3.621999979019165 18.04400062561035,3.6630001068115234 18.035999298095703,3.703000068664551 C15.994000434875488,13.043000221252441 6.735000133514404,18.981000900268555 -2.6059999465942383,16.940000534057617 C-11.946999549865723,14.89799976348877 -17.884000778198242,5.638000011444092 -15.843000411987305,-3.7019999027252197 C-13.800999641418457,-13.043000221252441 -4.541999816894531,-18.981000900268555 4.798999786376953,-16.940000534057617 C5.741000175476074,-16.733999252319336 6.644999980926514,-16.45199966430664 7.51200008392334,-16.106000900268555 C7.51200008392334,-16.106000900268555 7.830999851226807,-17.569000244140625 7.830999851226807,-17.569000244140625 C6.959000110626221,-17.902999877929688 6.052999973297119,-18.176000595092773 5.114999771118164,-18.381000518798828 C-5.020999908447266,-20.597000122070312 -15.069999694824219,-14.152999877929688 -17.28499984741211,-4.017000198364258 C-19.5,6.11899995803833 -13.057000160217285,16.165000915527344 -2.9210000038146973,18.381000518798828 C7.2129998207092285,20.597000122070312 17.26300048828125,14.152999877929688 19.47800064086914,4.01800012588501z" />
            </g>
            <g opacity="1" transform="matrix(1,0,0,1,21.15399932861328,19.781999588012695)">
                <path fill="rgb(237,237,237)" fill-opacity="1"
                    d=" M-5.031000137329102,19.503000259399414 C-4.991000175476074,19.514999389648438 -4.952000141143799,19.52199935913086 -4.9120001792907715,19.531999588012695 C-4.9120001792907715,19.531999588012695 -4.517000198364258,18.108999252319336 -4.517000198364258,18.108999252319336 C-4.556000232696533,18.100000381469727 -4.5970001220703125,18.091999053955078 -4.636000156402588,18.08099937438965 C-13.848999977111816,15.52400016784668 -19.263999938964844,5.947999954223633 -16.708999633789062,-3.265000104904175 C-14.152000427246094,-12.47700023651123 -4.577000141143799,-17.893999099731445 4.636000156402588,-15.336000442504883 C13.848999977111816,-12.779999732971191 19.263999938964844,-3.2049999237060547 16.70800018310547,6.007999897003174 C16.450000762939453,6.936999797821045 16.118000030517578,7.824999809265137 15.72599983215332,8.67199993133545 C15.72599983215332,8.67199993133545 17.167999267578125,9.071999549865723 17.167999267578125,9.071999549865723 C17.549999237060547,8.220000267028809 17.871999740600586,7.328999996185303 18.1299991607666,6.4019999504089355 C20.90399932861328,-3.5950000286102295 15.027999877929688,-13.984000205993652 5.031000137329102,-16.759000778198242 C-4.9670000076293945,-19.531999588012695 -15.355999946594238,-13.656000137329102 -18.131000518798828,-3.6589999198913574 C-20.90399932861328,6.3379998207092285 -15.027999877929688,16.729999542236328 -5.031000137329102,19.503000259399414z" />
            </g>
        </g>
        <g transform="matrix(1,0,0,1,53.53837966918945,94.7370834350586)" opacity="1"
            style="display: block;">
            <g opacity="1" transform="matrix(1,0,0,1,56.75400161743164,37.27899932861328)">
                <path fill="rgb(0,221,179)" fill-opacity="0.4"
                    d=" M53.305999755859375,37.02899932861328 C53.305999755859375,37.02899932861328 -53.303001403808594,37.02899932861328 -53.303001403808594,37.02899932861328 C-55.06999969482422,37.02899932861328 -56.505001068115234,35.59600067138672 -56.505001068115234,33.82899856567383 C-56.505001068115234,33.82899856567383 -56.505001068115234,-33.82899856567383 -56.505001068115234,-33.82899856567383 C-56.505001068115234,-35.59700012207031 -55.07099914550781,-37.02899932861328 -53.303001403808594,-37.02899932861328 C-53.303001403808594,-37.02899932861328 53.305999755859375,-37.02899932861328 53.305999755859375,-37.02899932861328 C55.073001861572266,-37.02899932861328 56.505001068115234,-35.59700012207031 56.505001068115234,-33.82899856567383 C56.505001068115234,-33.82899856567383 56.505001068115234,33.82899856567383 56.505001068115234,33.82899856567383 C56.505001068115234,35.59600067138672 55.073001861572266,37.02899932861328 53.305999755859375,37.02899932861328z" />
            </g>
            <g opacity="1" transform="matrix(1,0,0,1,56.75400161743164,3.0450000762939453)">
                <path fill="rgb(237,237,237)" fill-opacity="1"
                    d=" M53.305999755859375,-2.7950000762939453 C53.305999755859375,-2.7950000762939453 -53.303001403808594,-2.7950000762939453 -53.303001403808594,-2.7950000762939453 C-55.06999969482422,-2.7950000762939453 -56.505001068115234,-1.3619999885559082 -56.505001068115234,0.4050000011920929 C-56.505001068115234,0.4050000011920929 -56.505001068115234,2.7950000762939453 -56.505001068115234,2.7950000762939453 C-56.505001068115234,2.7950000762939453 56.505001068115234,2.7950000762939453 56.505001068115234,2.7950000762939453 C56.505001068115234,2.7950000762939453 56.505001068115234,0.4050000011920929 56.505001068115234,0.4050000011920929 C56.505001068115234,-1.3619999885559082 55.073001861572266,-2.7950000762939453 53.305999755859375,-2.7950000762939453z" />
            </g>
            <g opacity="1" transform="matrix(1,0,0,1,40.55099868774414,22.566999435424805)">
                <path fill="rgb(8,87,160)" fill-opacity="1"
                    d=" M29.187999725341797,0.6779999732971191 C29.187999725341797,0.6779999732971191 -29.18600082397461,0.6779999732971191 -29.18600082397461,0.6779999732971191 C-29.53499984741211,0.6779999732971191 -29.81999969482422,0.39399999380111694 -29.81999969482422,0.04600000008940697 C-29.81999969482422,0.04600000008940697 -29.81999969482422,-0.04600000008940697 -29.81999969482422,-0.04600000008940697 C-29.81999969482422,-0.3930000066757202 -29.53499984741211,-0.6779999732971191 -29.18600082397461,-0.6779999732971191 C-29.18600082397461,-0.6779999732971191 29.187999725341797,-0.6779999732971191 29.187999725341797,-0.6779999732971191 C29.535999298095703,-0.6779999732971191 29.81999969482422,-0.3930000066757202 29.81999969482422,-0.04600000008940697 C29.81999969482422,-0.04600000008940697 29.81999969482422,0.04600000008940697 29.81999969482422,0.04600000008940697 C29.81999969482422,0.39399999380111694 29.535999298095703,0.6779999732971191 29.187999725341797,0.6779999732971191z" />
            </g>
            <g opacity="1" transform="matrix(1,0,0,1,30.68000030517578,26.655000686645508)">
                <path fill="rgb(8,87,160)" fill-opacity="1"
                    d=" M19.378000259399414,0.6800000071525574 C19.378000259399414,0.6800000071525574 -19.378000259399414,0.6800000071525574 -19.378000259399414,0.6800000071525574 C-19.69099998474121,0.6800000071525574 -19.947999954223633,0.42500001192092896 -19.947999954223633,0.1120000034570694 C-19.947999954223633,0.1120000034570694 -19.947999954223633,-0.11100000143051147 -19.947999954223633,-0.11100000143051147 C-19.947999954223633,-0.42399999499320984 -19.69099998474121,-0.6800000071525574 -19.378000259399414,-0.6800000071525574 C-19.378000259399414,-0.6800000071525574 19.378000259399414,-0.6800000071525574 19.378000259399414,-0.6800000071525574 C19.69099998474121,-0.6800000071525574 19.947999954223633,-0.42399999499320984 19.947999954223633,-0.11100000143051147 C19.947999954223633,-0.11100000143051147 19.947999954223633,0.1120000034570694 19.947999954223633,0.1120000034570694 C19.947999954223633,0.42500001192092896 19.69099998474121,0.6800000071525574 19.378000259399414,0.6800000071525574z" />
            </g>
            <g opacity="1" transform="matrix(1,0,0,1,40.55099868774414,30.73699951171875)">
                <path fill="rgb(8,87,160)" fill-opacity="1"
                    d=" M29.187999725341797,0.6779999732971191 C29.187999725341797,0.6779999732971191 -29.18600082397461,0.6779999732971191 -29.18600082397461,0.6779999732971191 C-29.53499984741211,0.6779999732971191 -29.81999969482422,0.3930000066757202 -29.81999969482422,0.04500000178813934 C-29.81999969482422,0.04500000178813934 -29.81999969482422,-0.04699999839067459 -29.81999969482422,-0.04699999839067459 C-29.81999969482422,-0.39399999380111694 -29.53499984741211,-0.6779999732971191 -29.18600082397461,-0.6779999732971191 C-29.18600082397461,-0.6779999732971191 29.187999725341797,-0.6779999732971191 29.187999725341797,-0.6779999732971191 C29.535999298095703,-0.6779999732971191 29.81999969482422,-0.39399999380111694 29.81999969482422,-0.04699999839067459 C29.81999969482422,-0.04699999839067459 29.81999969482422,0.04500000178813934 29.81999969482422,0.04500000178813934 C29.81999969482422,0.3930000066757202 29.535999298095703,0.6779999732971191 29.187999725341797,0.6779999732971191z" />
            </g>
            <g opacity="1" transform="matrix(1,0,0,1,30.68000030517578,34.82400131225586)">
                <path fill="rgb(8,87,160)" fill-opacity="1"
                    d=" M19.378000259399414,0.6800000071525574 C19.378000259399414,0.6800000071525574 -19.378000259399414,0.6800000071525574 -19.378000259399414,0.6800000071525574 C-19.69099998474121,0.6800000071525574 -19.947999954223633,0.42500001192092896 -19.947999954223633,0.1120000034570694 C-19.947999954223633,0.1120000034570694 -19.947999954223633,-0.10999999940395355 -19.947999954223633,-0.10999999940395355 C-19.947999954223633,-0.4230000078678131 -19.69099998474121,-0.6800000071525574 -19.378000259399414,-0.6800000071525574 C-19.378000259399414,-0.6800000071525574 19.378000259399414,-0.6800000071525574 19.378000259399414,-0.6800000071525574 C19.69099998474121,-0.6800000071525574 19.947999954223633,-0.4230000078678131 19.947999954223633,-0.10999999940395355 C19.947999954223633,-0.10999999940395355 19.947999954223633,0.1120000034570694 19.947999954223633,0.1120000034570694 C19.947999954223633,0.42500001192092896 19.69099998474121,0.6800000071525574 19.378000259399414,0.6800000071525574z" />
            </g>
            <g opacity="1" transform="matrix(1,0,0,1,40.55099868774414,45.7140007019043)">
                <path fill="rgb(8,87,160)" fill-opacity="1"
                    d=" M29.187999725341797,0.6779999732971191 C29.187999725341797,0.6779999732971191 -29.18600082397461,0.6779999732971191 -29.18600082397461,0.6779999732971191 C-29.53499984741211,0.6779999732971191 -29.81999969482422,0.39399999380111694 -29.81999969482422,0.04600000008940697 C-29.81999969482422,0.04600000008940697 -29.81999969482422,-0.04600000008940697 -29.81999969482422,-0.04600000008940697 C-29.81999969482422,-0.39399999380111694 -29.53499984741211,-0.6779999732971191 -29.18600082397461,-0.6779999732971191 C-29.18600082397461,-0.6779999732971191 29.187999725341797,-0.6779999732971191 29.187999725341797,-0.6779999732971191 C29.535999298095703,-0.6779999732971191 29.81999969482422,-0.39399999380111694 29.81999969482422,-0.04600000008940697 C29.81999969482422,-0.04600000008940697 29.81999969482422,0.04600000008940697 29.81999969482422,0.04600000008940697 C29.81999969482422,0.39399999380111694 29.535999298095703,0.6779999732971191 29.187999725341797,0.6779999732971191z" />
            </g>
            <g opacity="1" transform="matrix(1,0,0,1,30.68000030517578,38.22800064086914)">
                <path fill="rgb(8,87,160)" fill-opacity="1"
                    d=" M19.378000259399414,0.6800000071525574 C19.378000259399414,0.6800000071525574 -19.378000259399414,0.6800000071525574 -19.378000259399414,0.6800000071525574 C-19.69099998474121,0.6800000071525574 -19.947999954223633,0.42500001192092896 -19.947999954223633,0.1120000034570694 C-19.947999954223633,0.1120000034570694 -19.947999954223633,-0.11100000143051147 -19.947999954223633,-0.11100000143051147 C-19.947999954223633,-0.42399999499320984 -19.69099998474121,-0.6800000071525574 -19.378999710083008,-0.6800000071525574 C-19.378999710083008,-0.6800000071525574 19.378000259399414,-0.6800000071525574 19.378000259399414,-0.6800000071525574 C19.69099998474121,-0.6800000071525574 19.947999954223633,-0.42399999499320984 19.947999954223633,-0.11100000143051147 C19.947999954223633,-0.11100000143051147 19.947999954223633,0.1120000034570694 19.947999954223633,0.1120000034570694 C19.947999954223633,0.42500001192092896 19.69099998474121,0.6800000071525574 19.378000259399414,0.6800000071525574z" />
            </g>
            <g opacity="1" transform="matrix(1,0,0,1,40.55099868774414,53.882999420166016)">
                <path fill="rgb(8,87,160)" fill-opacity="1"
                    d=" M29.187999725341797,0.6779999732971191 C29.187999725341797,0.6779999732971191 -29.18600082397461,0.6779999732971191 -29.18600082397461,0.6779999732971191 C-29.53499984741211,0.6779999732971191 -29.81999969482422,0.3930000066757202 -29.81999969482422,0.04500000178813934 C-29.81999969482422,0.04500000178813934 -29.81999969482422,-0.04600000008940697 -29.81999969482422,-0.04600000008940697 C-29.81999969482422,-0.3930000066757202 -29.53499984741211,-0.6779999732971191 -29.18600082397461,-0.6779999732971191 C-29.18600082397461,-0.6779999732971191 29.187999725341797,-0.6779999732971191 29.187999725341797,-0.6779999732971191 C29.535999298095703,-0.6779999732971191 29.81999969482422,-0.3930000066757202 29.81999969482422,-0.04600000008940697 C29.81999969482422,-0.04600000008940697 29.81999969482422,0.04500000178813934 29.81999969482422,0.04500000178813934 C29.81999969482422,0.3930000066757202 29.535999298095703,0.6779999732971191 29.187999725341797,0.6779999732971191z" />
            </g>
            <g opacity="1" transform="matrix(1,0,0,1,40.55099868774414,49.79899978637695)">
                <path fill="rgb(8,87,160)" fill-opacity="1"
                    d=" M29.187999725341797,0.6779999732971191 C29.187999725341797,0.6779999732971191 -29.18600082397461,0.6779999732971191 -29.18600082397461,0.6779999732971191 C-29.53499984741211,0.6779999732971191 -29.81999969482422,0.3930000066757202 -29.81999969482422,0.04500000178813934 C-29.81999969482422,0.04500000178813934 -29.81999969482422,-0.04699999839067459 -29.81999969482422,-0.04699999839067459 C-29.81999969482422,-0.39399999380111694 -29.53499984741211,-0.6779999732971191 -29.18600082397461,-0.6779999732971191 C-29.18600082397461,-0.6779999732971191 29.187999725341797,-0.6779999732971191 29.187999725341797,-0.6779999732971191 C29.535999298095703,-0.6779999732971191 29.81999969482422,-0.39399999380111694 29.81999969482422,-0.04699999839067459 C29.81999969482422,-0.04699999839067459 29.81999969482422,0.04500000178813934 29.81999969482422,0.04500000178813934 C29.81999969482422,0.3930000066757202 29.535999298095703,0.6779999732971191 29.187999725341797,0.6779999732971191z" />
            </g>
            <g opacity="1" transform="matrix(1,0,0,1,30.68000030517578,57.970001220703125)">
                <path fill="rgb(8,87,160)" fill-opacity="1"
                    d=" M19.378000259399414,0.6800000071525574 C19.378000259399414,0.6800000071525574 -19.378000259399414,0.6800000071525574 -19.378000259399414,0.6800000071525574 C-19.69099998474121,0.6800000071525574 -19.947999954223633,0.42500001192092896 -19.947999954223633,0.1120000034570694 C-19.947999954223633,0.1120000034570694 -19.947999954223633,-0.10999999940395355 -19.947999954223633,-0.10999999940395355 C-19.947999954223633,-0.4230000078678131 -19.69099998474121,-0.6800000071525574 -19.378000259399414,-0.6800000071525574 C-19.378000259399414,-0.6800000071525574 19.378000259399414,-0.6800000071525574 19.378000259399414,-0.6800000071525574 C19.69099998474121,-0.6800000071525574 19.947999954223633,-0.4230000078678131 19.947999954223633,-0.11100000143051147 C19.947999954223633,-0.11100000143051147 19.947999954223633,0.1120000034570694 19.947999954223633,0.1120000034570694 C19.947999954223633,0.42500001192092896 19.69099998474121,0.6800000071525574 19.378000259399414,0.6800000071525574z" />
            </g>
            <g opacity="1" transform="matrix(1,0,0,1,30.68000030517578,62.736000061035156)">
                <path fill="rgb(8,87,160)" fill-opacity="1"
                    d=" M19.378000259399414,0.6800000071525574 C19.378000259399414,0.6800000071525574 -19.378000259399414,0.6800000071525574 -19.378000259399414,0.6800000071525574 C-19.69099998474121,0.6800000071525574 -19.947999954223633,0.42500001192092896 -19.947999954223633,0.1120000034570694 C-19.947999954223633,0.1120000034570694 -19.947999954223633,-0.11100000143051147 -19.947999954223633,-0.11100000143051147 C-19.947999954223633,-0.42399999499320984 -19.69099998474121,-0.6800000071525574 -19.378999710083008,-0.6800000071525574 C-19.378999710083008,-0.6800000071525574 19.378000259399414,-0.6800000071525574 19.378000259399414,-0.6800000071525574 C19.69099998474121,-0.6800000071525574 19.947999954223633,-0.42399999499320984 19.947999954223633,-0.11100000143051147 C19.947999954223633,-0.11100000143051147 19.947999954223633,0.1120000034570694 19.947999954223633,0.1120000034570694 C19.947999954223633,0.42500001192092896 19.69099998474121,0.6800000071525574 19.378000259399414,0.6800000071525574z" />
            </g>
            <g opacity="1" transform="matrix(1,0,0,1,93.51699829101562,29.88800048828125)">
                <path fill="rgb(237,237,237)" fill-opacity="1"
                    d=" M10.892999649047852,9.701000213623047 C10.892999649047852,9.701000213623047 -10.892999649047852,9.701000213623047 -10.892999649047852,9.701000213623047 C-10.892999649047852,9.701000213623047 -10.892999649047852,-9.701000213623047 -10.892999649047852,-9.701000213623047 C-10.892999649047852,-9.701000213623047 10.892999649047852,-9.701000213623047 10.892999649047852,-9.701000213623047 C10.892999649047852,-9.701000213623047 10.892999649047852,9.701000213623047 10.892999649047852,9.701000213623047z" />
            </g>
            <g opacity="1" transform="matrix(1,0,0,1,93.51699829101562,56.097999572753906)">
                <path fill="rgb(237,237,237)" fill-opacity="1"
                    d=" M10.892999649047852,9.701000213623047 C10.892999649047852,9.701000213623047 -10.892999649047852,9.701000213623047 -10.892999649047852,9.701000213623047 C-10.892999649047852,9.701000213623047 -10.892999649047852,-9.701000213623047 -10.892999649047852,-9.701000213623047 C-10.892999649047852,-9.701000213623047 10.892999649047852,-9.701000213623047 10.892999649047852,-9.701000213623047 C10.892999649047852,-9.701000213623047 10.892999649047852,9.701000213623047 10.892999649047852,9.701000213623047z" />
            </g>
            <g opacity="1" transform="matrix(1,0,0,1,57.60599899291992,13.038999557495117)">
                <path fill="rgb(237,237,237)" fill-opacity="1"
                    d=" M46.803001403808594,1.7020000219345093 C46.803001403808594,1.7020000219345093 -46.803001403808594,1.7020000219345093 -46.803001403808594,1.7020000219345093 C-46.803001403808594,1.7020000219345093 -46.803001403808594,-1.7020000219345093 -46.803001403808594,-1.7020000219345093 C-46.803001403808594,-1.7020000219345093 46.803001403808594,-1.7020000219345093 46.803001403808594,-1.7020000219345093 C46.803001403808594,-1.7020000219345093 46.803001403808594,1.7020000219345093 46.803001403808594,1.7020000219345093z" />
            </g>
        </g>
        <g
            transform="matrix(0.8316547870635986,0,0,0.8316547870635986,241.6344757080078,174.845703125)"
            opacity="1" style="display: block;">
            <g opacity="1" transform="matrix(1,0,0,1,49.6150016784668,54.305999755859375)">
                <path fill="rgb(237,237,237)" fill-opacity="0.4"
                    d=" M49.3650016784668,54.055999755859375 C49.3650016784668,54.055999755859375 -49.3650016784668,54.055999755859375 -49.3650016784668,54.055999755859375 C-49.3650016784668,54.055999755859375 -49.3650016784668,-54.055999755859375 -49.3650016784668,-54.055999755859375 C-49.3650016784668,-54.055999755859375 49.3650016784668,-54.055999755859375 49.3650016784668,-54.055999755859375 C49.3650016784668,-54.055999755859375 49.3650016784668,54.055999755859375 49.3650016784668,54.055999755859375z" />
            </g>
            <g opacity="1" transform="matrix(1,0,0,1,49.6150016784668,20.47100067138672)">
                <path fill="rgb(237,237,237)" fill-opacity="1"
                    d=" M27.334999084472656,14.86400032043457 C27.334999084472656,14.86400032043457 -27.334999084472656,14.86400032043457 -27.334999084472656,14.86400032043457 C-27.334999084472656,14.86400032043457 -27.334999084472656,-14.86400032043457 -27.334999084472656,-14.86400032043457 C-27.334999084472656,-14.86400032043457 27.334999084472656,-14.86400032043457 27.334999084472656,-14.86400032043457 C27.334999084472656,-14.86400032043457 27.334999084472656,14.86400032043457 27.334999084472656,14.86400032043457z" />
            </g>
            <g opacity="1" transform="matrix(1,0,0,1,59.6150016784668,48.505001068115234)">
                <path fill="rgb(228,245,242)" fill-opacity="1"
                    d=" M29.125,1.0219999551773071 C29.125,1.0219999551773071 -29.125,1.0219999551773071 -29.125,1.0219999551773071 C-29.59600067138672,1.0219999551773071 -29.979999542236328,0.6370000243186951 -29.979999542236328,0.16699999570846558 C-29.979999542236328,0.16699999570846558 -29.979999542236328,-0.16599999368190765 -29.979999542236328,-0.16599999368190765 C-29.979999542236328,-0.6370000243186951 -29.59600067138672,-1.0219999551773071 -29.125,-1.0219999551773071 C-29.125,-1.0219999551773071 29.125,-1.0219999551773071 29.125,-1.0219999551773071 C29.59600067138672,-1.0219999551773071 29.979999542236328,-0.6370000243186951 29.979999542236328,-0.16599999368190765 C29.979999542236328,-0.16599999368190765 29.979999542236328,0.16699999570846558 29.979999542236328,0.16699999570846558 C29.979999542236328,0.6370000243186951 29.59600067138672,1.0219999551773071 29.125,1.0219999551773071z" />
            </g>
            <g opacity="1" transform="matrix(1,0,0,1,44.91400146484375,53.99599838256836)">
                <path fill="rgb(228,245,242)" fill-opacity="1"
                    d=" M14.678999900817871,0.9879999756813049 C14.678999900817871,0.9879999756813049 -14.678999900817871,0.9879999756813049 -14.678999900817871,0.9879999756813049 C-15.008999824523926,0.9879999756813049 -15.279999732971191,0.7170000076293945 -15.279999732971191,0.3869999945163727 C-15.279999732971191,0.3869999945163727 -15.279999732971191,-0.38600000739097595 -15.279999732971191,-0.38600000739097595 C-15.279999732971191,-0.7160000205039978 -15.008999824523926,-0.9879999756813049 -14.678999900817871,-0.9879999756813049 C-14.678999900817871,-0.9879999756813049 14.678999900817871,-0.9879999756813049 14.678999900817871,-0.9879999756813049 C15.008999824523926,-0.9879999756813049 15.279999732971191,-0.7160000205039978 15.279999732971191,-0.38600000739097595 C15.279999732971191,-0.38600000739097595 15.279999732971191,0.3869999945163727 15.279999732971191,0.3869999945163727 C15.279999732971191,0.7170000076293945 15.008999824523926,0.9879999756813049 14.678999900817871,0.9879999756813049z" />
            </g>
            <g opacity="1" transform="matrix(1,0,0,1,19.121999740600586,51.34199905395508)">
                <path fill="rgb(237,237,237)" fill-opacity="1"
                    d=" M3.125999927520752,5.000999927520752 C3.125999927520752,5.000999927520752 -3.125999927520752,5.000999927520752 -3.125999927520752,5.000999927520752 C-4.160999774932861,5.000999927520752 -5.000999927520752,4.1620001792907715 -5.000999927520752,3.125999927520752 C-5.000999927520752,3.125999927520752 -5.000999927520752,-3.125999927520752 -5.000999927520752,-3.125999927520752 C-5.000999927520752,-4.160999774932861 -4.160999774932861,-5.000999927520752 -3.125999927520752,-5.000999927520752 C-3.125999927520752,-5.000999927520752 3.125999927520752,-5.000999927520752 3.125999927520752,-5.000999927520752 C4.1620001792907715,-5.000999927520752 5.000999927520752,-4.160999774932861 5.000999927520752,-3.125999927520752 C5.000999927520752,-3.125999927520752 5.000999927520752,3.125999927520752 5.000999927520752,3.125999927520752 C5.000999927520752,4.1620001792907715 4.1620001792907715,5.000999927520752 3.125999927520752,5.000999927520752z" />
            </g>
            <g opacity="1" transform="matrix(1,0,0,1,59.6150016784668,69.11699676513672)">
                <path fill="rgb(228,245,242)" fill-opacity="1"
                    d=" M29.125,1.0219999551773071 C29.125,1.0219999551773071 -29.125,1.0219999551773071 -29.125,1.0219999551773071 C-29.59600067138672,1.0219999551773071 -29.979999542236328,0.6370000243186951 -29.979999542236328,0.16699999570846558 C-29.979999542236328,0.16699999570846558 -29.979999542236328,-0.16500000655651093 -29.979999542236328,-0.16500000655651093 C-29.979999542236328,-0.6359999775886536 -29.59600067138672,-1.0219999551773071 -29.125,-1.0219999551773071 C-29.125,-1.0219999551773071 29.125,-1.0219999551773071 29.125,-1.0219999551773071 C29.59600067138672,-1.0219999551773071 29.979999542236328,-0.6359999775886536 29.979999542236328,-0.16500000655651093 C29.979999542236328,-0.16500000655651093 29.979999542236328,0.16699999570846558 29.979999542236328,0.16699999570846558 C29.979999542236328,0.6370000243186951 29.59600067138672,1.0219999551773071 29.125,1.0219999551773071z" />
            </g>
            <g opacity="1" transform="matrix(1,0,0,1,44.91400146484375,74.60800170898438)">
                <path fill="rgb(228,245,242)" fill-opacity="1"
                    d=" M14.678999900817871,0.9869999885559082 C14.678999900817871,0.9869999885559082 -14.678999900817871,0.9869999885559082 -14.678999900817871,0.9869999885559082 C-15.008999824523926,0.9869999885559082 -15.279999732971191,0.7170000076293945 -15.279999732971191,0.3869999945163727 C-15.279999732971191,0.3869999945163727 -15.279999732971191,-0.38600000739097595 -15.279999732971191,-0.38600000739097595 C-15.279999732971191,-0.7170000076293945 -15.008999824523926,-0.9869999885559082 -14.678999900817871,-0.9869999885559082 C-14.678999900817871,-0.9869999885559082 14.678999900817871,-0.9869999885559082 14.678999900817871,-0.9869999885559082 C15.008999824523926,-0.9869999885559082 15.279999732971191,-0.7170000076293945 15.279999732971191,-0.38600000739097595 C15.279999732971191,-0.38600000739097595 15.279999732971191,0.3869999945163727 15.279999732971191,0.3869999945163727 C15.279999732971191,0.7170000076293945 15.008999824523926,0.9869999885559082 14.678999900817871,0.9869999885559082z" />
            </g>
            <g opacity="1" transform="matrix(1,0,0,1,19.121999740600586,72.25700378417969)">
                <path fill="rgb(255,255,255)" fill-opacity="1"
                    d=" M3.125999927520752,5.000999927520752 C3.125999927520752,5.000999927520752 -3.125999927520752,5.000999927520752 -3.125999927520752,5.000999927520752 C-4.160999774932861,5.000999927520752 -5.000999927520752,4.1620001792907715 -5.000999927520752,3.125999927520752 C-5.000999927520752,3.125999927520752 -5.000999927520752,-3.125999927520752 -5.000999927520752,-3.125999927520752 C-5.000999927520752,-4.1620001792907715 -4.160999774932861,-5.000999927520752 -3.125999927520752,-5.000999927520752 C-3.125999927520752,-5.000999927520752 3.125999927520752,-5.000999927520752 3.125999927520752,-5.000999927520752 C4.1620001792907715,-5.000999927520752 5.000999927520752,-4.1620001792907715 5.000999927520752,-3.125999927520752 C5.000999927520752,-3.125999927520752 5.000999927520752,3.125999927520752 5.000999927520752,3.125999927520752 C5.000999927520752,4.1620001792907715 4.1620001792907715,5.000999927520752 3.125999927520752,5.000999927520752z" />
            </g>
            <g opacity="1" transform="matrix(1,0,0,1,59.6150016784668,89.72899627685547)">
                <path fill="rgb(228,245,242)" fill-opacity="1"
                    d=" M29.125,1.0219999551773071 C29.125,1.0219999551773071 -29.125,1.0219999551773071 -29.125,1.0219999551773071 C-29.59600067138672,1.0219999551773071 -29.979999542236328,0.6359999775886536 -29.979999542236328,0.16599999368190765 C-29.979999542236328,0.16599999368190765 -29.979999542236328,-0.16599999368190765 -29.979999542236328,-0.16599999368190765 C-29.979999542236328,-0.6370000243186951 -29.59600067138672,-1.0219999551773071 -29.125,-1.0219999551773071 C-29.125,-1.0219999551773071 29.125,-1.0219999551773071 29.125,-1.0219999551773071 C29.59600067138672,-1.0219999551773071 29.979999542236328,-0.6370000243186951 29.979999542236328,-0.16599999368190765 C29.979999542236328,-0.16599999368190765 29.979999542236328,0.16599999368190765 29.979999542236328,0.16599999368190765 C29.979999542236328,0.6359999775886536 29.59600067138672,1.0219999551773071 29.125,1.0219999551773071z" />
            </g>
            <g opacity="1" transform="matrix(1,0,0,1,44.91400146484375,95.21900177001953)">
                <path fill="rgb(228,245,242)" fill-opacity="1"
                    d=" M14.678999900817871,0.9879999756813049 C14.678999900817871,0.9879999756813049 -14.678999900817871,0.9879999756813049 -14.678999900817871,0.9879999756813049 C-15.008999824523926,0.9879999756813049 -15.279999732971191,0.7170000076293945 -15.279999732971191,0.3869999945163727 C-15.279999732971191,0.3869999945163727 -15.279999732971191,-0.3869999945163727 -15.279999732971191,-0.3869999945163727 C-15.279999732971191,-0.7170000076293945 -15.008999824523926,-0.9879999756813049 -14.678999900817871,-0.9879999756813049 C-14.678999900817871,-0.9879999756813049 14.678999900817871,-0.9879999756813049 14.678999900817871,-0.9879999756813049 C15.008999824523926,-0.9879999756813049 15.279999732971191,-0.7170000076293945 15.279999732971191,-0.3869999945163727 C15.279999732971191,-0.3869999945163727 15.279999732971191,0.3869999945163727 15.279999732971191,0.3869999945163727 C15.279999732971191,0.7170000076293945 15.008999824523926,0.9879999756813049 14.678999900817871,0.9879999756813049z" />
            </g>
            <g opacity="1" transform="matrix(1,0,0,1,19.121999740600586,93.1709976196289)">
                <path fill="rgb(8,87,160)" fill-opacity="1"
                    d=" M3.125999927520752,5.001999855041504 C3.125999927520752,5.001999855041504 -3.125999927520752,5.001999855041504 -3.125999927520752,5.001999855041504 C-4.160999774932861,5.001999855041504 -5.000999927520752,4.1620001792907715 -5.000999927520752,3.127000093460083 C-5.000999927520752,3.127000093460083 -5.000999927520752,-3.125999927520752 -5.000999927520752,-3.125999927520752 C-5.000999927520752,-4.1620001792907715 -4.160999774932861,-5.001999855041504 -3.125999927520752,-5.001999855041504 C-3.125999927520752,-5.001999855041504 3.125999927520752,-5.001999855041504 3.125999927520752,-5.001999855041504 C4.1620001792907715,-5.001999855041504 5.000999927520752,-4.1620001792907715 5.000999927520752,-3.125999927520752 C5.000999927520752,-3.125999927520752 5.000999927520752,3.127000093460083 5.000999927520752,3.127000093460083 C5.000999927520752,4.1620001792907715 4.1620001792907715,5.001999855041504 3.125999927520752,5.001999855041504z" />
            </g>
            <g opacity="1" transform="matrix(1,0,0,1,49.56999969482422,20.562999725341797)">
                <path fill="rgb(8,87,160)" fill-opacity="1"
                    d=" M7.761000156402588,8.777000427246094 C7.761000156402588,8.777000427246094 -7.761000156402588,8.777000427246094 -7.761000156402588,8.777000427246094 C-8.821999549865723,8.777000427246094 -9.684000015258789,7.914000034332275 -9.684000015258789,6.853000164031982 C-9.684000015258789,6.853000164031982 -9.684000015258789,-6.854000091552734 -9.684000015258789,-6.854000091552734 C-9.684000015258789,-7.914999961853027 -8.821999549865723,-8.777000427246094 -7.761000156402588,-8.777000427246094 C-7.761000156402588,-8.777000427246094 7.761000156402588,-8.777000427246094 7.761000156402588,-8.777000427246094 C8.821999549865723,-8.777000427246094 9.684000015258789,-7.914999961853027 9.684000015258789,-6.854000091552734 C9.684000015258789,-6.854000091552734 9.684000015258789,6.853000164031982 9.684000015258789,6.853000164031982 C9.684000015258789,7.914000034332275 8.821999549865723,8.777000427246094 7.761000156402588,8.777000427246094z M-7.761000156402588,-7.566999912261963 C-8.154000282287598,-7.566999912261963 -8.473999977111816,-7.247000217437744 -8.473999977111816,-6.854000091552734 C-8.473999977111816,-6.854000091552734 -8.473999977111816,6.853000164031982 -8.473999977111816,6.853000164031982 C-8.473999977111816,7.247000217437744 -8.154000282287598,7.565999984741211 -7.761000156402588,7.565999984741211 C-7.761000156402588,7.565999984741211 7.761000156402588,7.565999984741211 7.761000156402588,7.565999984741211 C8.154000282287598,7.565999984741211 8.473999977111816,7.247000217437744 8.473999977111816,6.853000164031982 C8.473999977111816,6.853000164031982 8.473999977111816,-6.854000091552734 8.473999977111816,-6.854000091552734 C8.473999977111816,-7.247000217437744 8.154000282287598,-7.566999912261963 7.761000156402588,-7.566999912261963 C7.761000156402588,-7.566999912261963 -7.761000156402588,-7.566999912261963 -7.761000156402588,-7.566999912261963z" />
            </g>
            <g opacity="1" transform="matrix(1,0,0,1,51.20100021362305,18.409000396728516)">
                <path fill="rgb(8,87,160)" fill-opacity="1"
                    d=" M-2.256999969482422,8.97700023651123 C-2.256999969482422,8.97700023651123 -7.138999938964844,3.9200000762939453 -7.138999938964844,3.9200000762939453 C-7.138999938964844,3.9200000762939453 -6.28000020980835,3.0910000801086426 -6.28000020980835,3.0910000801086426 C-6.28000020980835,3.0910000801086426 -2.5320000648498535,6.9730000495910645 -2.5320000648498535,6.9730000495910645 C-2.5320000648498535,6.9730000495910645 6.0879998207092285,-8.97700023651123 6.0879998207092285,-8.97700023651123 C6.0879998207092285,-8.97700023651123 7.138999938964844,-8.40999984741211 7.138999938964844,-8.40999984741211 C7.138999938964844,-8.40999984741211 -2.256999969482422,8.97700023651123 -2.256999969482422,8.97700023651123z" />
            </g>
        </g>
        <g
            transform="matrix(0.8772748112678528,1.138903021812439,-1.138903021812439,0.8772748112678528,245.81471252441406,76.97117614746094)"
            opacity="1" style="display: block;">
            <g opacity="1" transform="matrix(1,0,0,1,26.413999557495117,29.40999984741211)">
                <path fill="rgb(237,237,237)" fill-opacity="0.4"
                    d=" M-3.6730000972747803,-27.69700050354004 C-6.986000061035156,-26.235000610351562 -8.49899959564209,-22.332000732421875 -7.035999774932861,-19.01799964904785 C-6.235000133514404,-17.20199966430664 -4.697000026702881,-15.937999725341797 -2.927999973297119,-15.39799976348877 C-2.927999973297119,-15.39799976348877 -4.416999816894531,-8.539999961853027 -4.416999816894531,-8.539999961853027 C-5.448999881744385,-8.510000228881836 -6.486999988555908,-8.300000190734863 -7.48799991607666,-7.857999801635742 C-9.326000213623047,-7.046999931335449 -10.713000297546387,-5.631999969482422 -11.53600025177002,-3.9539999961853027 C-11.53600025177002,-3.9539999961853027 -17.97100067138672,-6.264999866485596 -17.97100067138672,-6.264999866485596 C-17.972000122070312,-6.7769999504089355 -18.06999969482422,-7.298999786376953 -18.288000106811523,-7.793000221252441 C-19.139999389648438,-9.720000267028809 -21.423999786376953,-10.605999946594238 -23.351999282836914,-9.755000114440918 C-25.27899932861328,-8.904000282287598 -26.163999557495117,-6.619999885559082 -25.31399917602539,-4.691999912261963 C-24.461999893188477,-2.763000011444092 -22.18000030517578,-1.878999948501587 -20.250999450683594,-2.7300000190734863 C-19.54800033569336,-3.0399999618530273 -18.979000091552734,-3.5339999198913574 -18.586999893188477,-4.138000011444092 C-18.586999893188477,-4.138000011444092 -12.241999626159668,-1.8619999885559082 -12.241999626159668,-1.8619999885559082 C-12.545999526977539,-0.27799999713897705 -12.390999794006348,1.409000039100647 -11.692999839782715,2.990999937057495 C-10.954999923706055,4.6620001792907715 -9.722999572753906,5.9679999351501465 -8.244999885559082,6.809999942779541 C-8.244999885559082,6.809999942779541 -11.592000007629395,15.444999694824219 -11.592000007629395,15.444999694824219 C-13.08899974822998,14.947999954223633 -14.765000343322754,14.970999717712402 -16.31399917602539,15.656000137329102 C-19.628000259399414,17.117000579833984 -21.139999389648438,21.020999908447266 -19.67799949645996,24.333999633789062 C-18.21500015258789,27.64900016784668 -14.310999870300293,29.15999984741211 -10.996999740600586,27.698999404907227 C-7.683000087738037,26.236000061035156 -6.171999931335449,22.332000732421875 -7.635000228881836,19.018999099731445 C-8.092000007629395,17.982999801635742 -8.781000137329102,17.115999221801758 -9.621999740600586,16.466999053955078 C-9.625,16.461999893188477 -9.626999855041504,16.454999923706055 -9.628000259399414,16.451000213623047 C-9.628000259399414,16.451000213623047 -6.203999996185303,7.613999843597412 -6.203999996185303,7.613999843597412 C-4.4770002365112305,8.0600004196167 -2.5959999561309814,7.96999979019165 -0.8420000076293945,7.196000099182129 C1.031000018119812,6.368000030517578 2.438999891281128,4.914999961853027 3.255000114440918,3.194999933242798 C3.255000114440918,3.194999933242798 12.25100040435791,6.681000232696533 12.25100040435791,6.681000232696533 C11.980999946594238,7.978000164031982 12.086999893188477,9.362000465393066 12.65999984741211,10.65999984741211 C14.123000144958496,13.973999977111816 18.024999618530273,15.487000465393066 21.339000701904297,14.02400016784668 C24.652999877929688,12.560999870300293 26.163999557495117,8.656999588012695 24.70199966430664,5.343999862670898 C23.23900032043457,2.0309998989105225 19.336999893188477,0.5180000066757202 16.023000717163086,1.9809999465942383 C14.723999977111816,2.553999900817871 13.71500015258789,3.50600004196167 13.039999961853027,4.646999835968018 C13.039999961853027,4.646999835968018 3.930000066757202,1.1160000562667847 3.930000066757202,1.1160000562667847 C4.2129998207092285,-0.4429999887943268 4.046999931335449,-2.0989999771118164 3.3610000610351562,-3.6540000438690186 C2.2909998893737793,-6.077000141143799 0.17900000512599945,-7.7220001220703125 -2.2170000076293945,-8.310999870300293 C-2.2170000076293945,-8.310999870300293 -0.7400000095367432,-15.109000205993652 -0.7400000095367432,-15.109000205993652 C0.061000000685453415,-15.140000343322754 0.8669999837875366,-15.312000274658203 1.6430000066757202,-15.654000282287598 C4.956999778747559,-17.117000579833984 6.46999979019165,-21.020000457763672 5.006999969482422,-24.333999633789062 C3.5439999103546143,-27.64699935913086 -0.36000001430511475,-29.15999984741211 -3.6730000972747803,-27.69700050354004z" />
            </g>
        </g>
        <g
            transform="matrix(0.9804295301437378,-0.19687026739120483,0.19687026739120483,0.9804295301437378,273.144287109375,71.82405853271484)"
            opacity="0.4" style="display: block;">
            <g opacity="1" transform="matrix(1,0,0,1,32.742000579833984,32.74100112915039)">
                <path fill="rgb(255,255,255)" fill-opacity="1"
                    d=" M22.99799919128418,23.304000854492188 C10.126999855041504,36.00600051879883 -10.604000091552734,35.86800003051758 -23.30500030517578,22.99799919128418 C-36.00600051879883,10.126999855041504 -35.86899948120117,-10.602999687194824 -22.999000549316406,-23.304000854492188 C-10.128000259399414,-36.00600051879883 10.60200023651123,-35.86899948120117 23.304000854492188,-22.999000549316406 C36.00600051879883,-10.128000259399414 35.86800003051758,10.602999687194824 22.99799919128418,23.304000854492188z" />
            </g>
        </g>
        <g
            transform="matrix(0.9804295301437378,-0.19687026739120483,0.19687026739120483,0.9804295301437378,264.67578125,66.18693542480469)"
            opacity="1" style="display: block;">
            <g opacity="1" transform="matrix(1,0,0,1,44.180999755859375,44.470001220703125)">
                <path fill="rgb(8,87,160)" fill-opacity="1"
                    d=" M43.930999755859375,39.492000579833984 C43.930999755859375,39.492000579833984 23.400999069213867,18.687999725341797 23.400999069213867,18.687999725341797 C35.25600051879883,4.59499979019165 34.641998291015625,-16.53499984741211 21.452999114990234,-29.898000717163086 C7.468999862670898,-44.069000244140625 -15.437000274658203,-44.220001220703125 -29.608999252319336,-30.235000610351562 C-43.779998779296875,-16.250999450683594 -43.930999755859375,6.6570000648498535 -29.945999145507812,20.827999114990234 C-16.759000778198242,34.191001892089844 4.361000061035156,35.08399963378906 18.610000610351562,23.416000366210938 C18.610000610351562,23.416000366210938 39.13999938964844,44.220001220703125 39.13999938964844,44.220001220703125 C39.13999938964844,44.220001220703125 43.930999755859375,39.492000579833984 43.930999755859375,39.492000579833984z M-25.155000686645508,16.099000930786133 C-36.53200149536133,4.570000171661377 -36.409000396728516,-14.065999984741211 -24.881000518798828,-25.444000244140625 C-13.35099983215332,-36.82099914550781 5.283999919891357,-36.698001861572266 16.66200065612793,-25.170000076293945 C28.040000915527344,-13.640000343322754 27.916000366210938,4.994999885559082 16.38800048828125,16.37299919128418 C4.859000205993652,27.750999450683594 -13.777000427246094,27.62700080871582 -25.155000686645508,16.099000930786133z" />
            </g>
            <g opacity="1" transform="matrix(1,0,0,1,108.58599853515625,109.37799835205078)">
                <path fill="rgb(237,237,237)" fill-opacity="1"
                    d=" M28.62299919128418,20.413999557495117 C28.62299919128418,20.413999557495117 -22.382999420166016,-31.27199935913086 -22.382999420166016,-31.27199935913086 C-22.382999420166016,-31.27199935913086 -30.961000442504883,-22.805999755859375 -30.961000442504883,-22.805999755859375 C-30.961000442504883,-22.805999755859375 20.04599952697754,28.878999710083008 20.04599952697754,28.878999710083008 C22.382999420166016,31.24799919128418 26.197999954223633,31.27199935913086 28.56599998474121,28.934999465942383 C30.93600082397461,26.597999572753906 30.961000442504883,22.781999588012695 28.62299919128418,20.413999557495117z" />
            </g>
        </g>
    </g>
</svg>